<svg class="favicon" width="100%" height="100%" viewBox="0 0 512 512" version="1.1" xmlns="http://www.w3.org/2000/svg">
    <style>
        .favicon {
            fill-rule: evenodd;
            clip-rule: evenodd;
            stroke-linejoin: round;
            stroke-miterlimit: 2;
        }
        #eyes-nose, #outline {
            fill: #22223a;
        }
        @media (prefers-color-scheme: dark) {
            #eyes-nose, #outline {
                fill: #fff;
            }
        }
    </style>
    <g transform="matrix(1.25925,0,0,1.25925,-58.8129,-65.454)">
        <g id="eyes-nose">
            <g transform="matrix(1,0,0,1,167.016,221.75)">
                <path d="M0,5L59,5C61.76,5 64,2.76 64,0C64,-2.76 61.76,-5 59,-5L-0,-5C-2.76,-5 -5,-2.76 -5,0C-5,2.76 -2.76,5 0,5Z"/>
            </g>
            <g transform="matrix(1,0,0,1,329.016,337.75)">
                <path d="M0,-121L-63,-121C-65.761,-121 -68,-118.761 -68,-116L-68,-32C-68,-30.935 -67.66,-29.899 -67.03,-29.04L-43.53,2.96C-41.897,5.184 -38.765,5.663 -36.54,4.03C-34.316,2.397 -33.837,-0.735 -35.47,-2.96L-58,-33.639L-58,-111L-0,-111C2.76,-111 5,-113.24 5,-116C5,-118.76 2.76,-121 0,-121Z"/>
            </g>
            <g transform="matrix(-0.484316,0.874893,0.874893,0.484316,235.761,337.31)">
                <path d="M-23.752,-19L8.252,-19C11.012,-19 13.252,-16.76 13.252,-14C13.252,-11.24 11.012,-9 8.252,-9L-23.752,-9C-26.512,-9 -28.752,-11.24 -28.752,-14C-28.752,-16.76 -26.512,-19 -23.752,-19Z"/>
            </g>
            <g transform="matrix(1,0,0,1,194.016,258.342)">
                <path d="M0,-14.325C-1.242,-14.325 -2.25,-13.317 -2.25,-12.075C-2.25,-10.832 -1.242,-9.825 0,-9.825C1.242,-9.825 2.25,-10.832 2.25,-12.075C2.25,-13.317 1.242,-14.325 0,-14.325M18.891,-7.163C18.891,0.102 13.002,5.991 5.737,5.991C-1.527,5.991 -7.416,0.102 -7.416,-7.163C-7.416,-14.427 -1.527,-20.316 5.737,-20.316C13.002,-20.316 18.891,-14.427 18.891,-7.163"/>
            </g>
            <g transform="matrix(1,0,0,1,293.016,258.342)">
                <path d="M0,-14.325C-1.242,-14.325 -2.25,-13.317 -2.25,-12.075C-2.25,-10.832 -1.242,-9.825 0,-9.825C1.242,-9.825 2.25,-10.832 2.25,-12.075C2.25,-13.317 1.242,-14.325 0,-14.325M19.225,-7.163C19.225,0.102 13.336,5.991 6.07,5.991C-1.193,5.991 -7.083,0.102 -7.083,-7.163C-7.083,-14.427 -1.193,-20.316 6.07,-20.316C13.336,-20.316 19.225,-14.427 19.225,-7.163"/>
            </g>
            <g transform="matrix(1,0,0,1,216.482,386.925)">
                <path d="M-1.843,-5.352C11.056,-0.238 24.601,5 38.476,5C52.351,5 65.896,-0.238 78.795,-5.352C81.36,-6.369 82.617,-9.277 81.6,-11.843C80.583,-14.408 77.675,-15.665 75.109,-14.648C63.371,-9.994 51.104,-5 38.476,-5C25.848,-5 13.581,-9.994 1.843,-14.648C-0.723,-15.665 -3.631,-14.408 -4.648,-11.843C-5.665,-9.277 -4.408,-6.369 -1.843,-5.352Z"/>
            </g>
        </g>
        <g id="outline" transform="matrix(0.976563,0,0,0.976563,0,0)">
            <path d="M117.129,255.375L105.727,261.985C102.932,263.605 101.45,266.801 102.018,269.981L112.572,329.026C112.922,330.984 114.018,332.73 115.63,333.897L140.397,351.817L163.846,419.95C164.448,421.7 165.662,423.174 167.265,424.1L228.705,459.599C229.873,460.274 231.199,460.63 232.548,460.63L293.988,460.63C295.823,460.63 297.598,459.972 298.991,458.776L361.797,404.845C363.101,403.725 363.992,402.199 364.327,400.513L374.072,351.378L396.605,333.719C398.091,332.555 399.096,330.884 399.428,329.026L409.982,269.981C410.528,266.927 409.183,263.844 406.572,262.167L394.965,254.714C400.637,231.243 407.246,200.257 406.929,185.326L406.929,185.325C406.419,161.327 399.042,130.512 376.471,105.679C354.125,81.093 316.787,62.171 255.919,62.171C209.616,62.171 176.324,74.217 153,91.549C117.528,117.906 104.908,156.629 104.908,185.432C104.908,200.329 111.567,231.808 117.129,255.375ZM386.282,267.392C386.043,267.313 385.81,267.216 385.583,267.1L372.375,260.341C370.622,259.444 369.558,257.6 369.66,255.633C370.203,245.091 368.636,235.34 361.58,223.454C358.66,218.864 358.01,213.061 358.174,206.496C358.365,198.808 359.707,189.852 356.672,181.108C353.311,171.426 348.105,161.617 338.552,157.673C332.24,155.066 324.149,155.184 313.682,159.183C291.938,167.489 281.233,171.529 255.869,171.529C230.503,171.529 219.901,167.49 198.157,159.183C187.69,155.184 179.598,155.066 173.286,157.673C163.733,161.617 158.527,171.426 155.167,181.108C152.132,189.852 153.473,198.808 153.665,206.496C153.828,213.053 153.18,218.851 150.258,223.455C143.642,234.618 141.947,246.077 142.183,256.235C142.227,258.124 141.202,259.877 139.534,260.765L126.518,267.692L126.425,267.741L118.085,272.575L127.146,323.27L151.37,340.798C152.652,341.725 153.616,343.025 154.13,344.521L177.435,412.237L234.607,445.27L291.143,445.27L349.777,394.921L359.56,345.596C359.917,343.794 360.909,342.179 362.356,341.046L384.823,323.438L393.96,272.323L386.282,267.392Z"/>
        </g>
    </g>
</svg>
