<?xml version="1.0" encoding="utf-8"?>
<!-- Generator: Adobe Illustrator 21.0.2, SVG Export Plug-In . SVG Version: 6.00 Build 0)  -->
<svg version="1.1" id="Layer_1" xmlns="http://www.w3.org/2000/svg" xmlns:xlink="http://www.w3.org/1999/xlink" x="0px" y="0px"
	 viewBox="0 0 40 40" style="enable-background:new 0 0 40 40;" xml:space="preserve">
<g>
	<path d="M34.1,12.2h-8.8V10h8.8V12.2L34.1,12.2z M19.5,21.1c0.6,0.9,0.8,2,0.8,3.2c0,1.3-0.4,2.4-1,3.5c-0.4,0.7-0.9,1.3-1.5,1.7
		c-0.7,0.6-1.5,0.9-2.4,1.1c-1,0.2-2,0.3-3.1,0.3H2.5V9.1H13c2.7,0.1,4.6,0.8,5.7,2.3c0.7,0.9,1,2,1,3.4s-0.4,2.4-1,3.2
		c-0.3,0.4-0.9,0.8-1.7,1.3C18.1,19.6,19,20.2,19.5,21.1z M7.5,17.7h4.6c1,0,1.7-0.2,2.3-0.6s0.9-1,0.9-1.9c0-1-0.4-1.7-1.2-2
		c-0.6-0.2-1.5-0.3-2.5-0.3H7.5V17.7z M15.7,24c0-1.1-0.5-1.9-1.4-2.3c-0.5-0.2-1.3-0.4-2.2-0.4H7.5v5.8h4.6c1,0,1.7-0.1,2.2-0.4
		C15.3,26.2,15.7,25.3,15.7,24z M37.4,20.4c0.1,0.7,0.1,1.8,0.1,3.1H26.2c0.1,1.5,0.6,2.7,1.6,3.3c0.6,0.4,1.4,0.6,2.2,0.6
		c0.9,0,1.7-0.2,2.2-0.7c0.4-0.3,0.6-0.6,0.8-1.1h4.1c-0.1,0.9-0.6,1.9-1.5,2.8c-1.4,1.5-3.4,2.3-5.9,2.3c-2.1,0-3.9-0.6-5.5-1.9
		s-2.4-3.4-2.4-6.2c0-2.7,0.7-4.8,2.2-6.2c1.5-1.5,3.3-2.2,5.6-2.2c1.3,0,2.6,0.2,3.6,0.7c1.2,0.5,2.1,1.3,2.8,2.3
		C36.7,18.1,37.2,19.2,37.4,20.4z M33.2,20.9c-0.1-1.1-0.4-1.9-1.1-2.4c-0.6-0.6-1.5-0.8-2.5-0.8s-1.9,0.3-2.4,0.9
		c-0.6,0.6-0.9,1.4-1.1,2.4L33.2,20.9L33.2,20.9z"/>
</g>
<g>
	<rect x="78.5" y="12.3" width="5.8" height="18.7"/>
	<path d="M81.5,9.7c-1.9,0-3.4-1.5-3.4-3.3S79.5,3,81.5,3s3.4,1.5,3.4,3.4S83.2,9.7,81.5,9.7z"/>
	<path d="M106.1,30.9h-5.8v-9.1c0-2.2,0-5-3-5s-3.5,2.4-3.5,4.8v9.2H88V12.3h5.6v2.6h0.1c1.1-1.9,3.2-3.1,5.5-3c5.9,0,7,3.9,7,8.9
		L106.1,30.9L106.1,30.9z"/>
</g>
<path d="M174.2,16.3C174.1,16.2,174.1,16.2,174.2,16.3c0-0.1,0-0.1,0-0.2c0,0,0,0,0-0.1c0,0,0-0.1,0-0.1c0,0,0,0,0-0.1
	c0,0,0-0.1,0-0.1c0,0,0,0,0-0.1c0,0,0-0.1-0.1-0.1c0,0,0,0,0-0.1c0,0,0,0-0.1-0.1c0,0,0,0-0.1-0.1c0,0,0,0-0.1-0.1c0,0,0,0-0.1,0
	c0,0,0,0,0,0l-13.7-9.1c-0.4-0.3-1-0.3-1.4,0l-13.7,9.1c0,0,0,0,0,0c0,0,0,0-0.1,0c0,0,0,0-0.1,0.1c0,0,0,0-0.1,0.1c0,0,0,0-0.1,0.1
	c0,0,0,0,0,0.1c0,0,0,0.1-0.1,0.1c0,0,0,0,0,0.1c0,0,0,0.1,0,0.1c0,0,0,0,0,0.1c0,0,0,0.1,0,0.1c0,0,0,0,0,0.1c0,0,0,0.1,0,0.1
	c0,0,0,0,0,0.1c0,0.1,0,0.1,0,0.2v9.1c0,0.1,0,0.1,0,0.2c0,0,0,0,0,0.1c0,0,0,0.1,0,0.1c0,0,0,0,0,0.1c0,0,0,0.1,0,0.1
	c0,0,0,0,0,0.1c0,0,0,0.1,0,0.1c0,0,0,0,0,0.1c0,0,0,0.1,0.1,0.1c0,0,0,0,0,0.1c0,0,0,0,0.1,0.1c0,0,0,0,0.1,0.1c0,0,0,0,0.1,0.1
	c0,0,0,0,0.1,0c0,0,0,0,0,0l13.7,9.1c0.2,0.1,0.5,0.2,0.7,0.2c0.2,0,0.5-0.1,0.7-0.2l13.7-9.1c0,0,0,0,0,0c0,0,0,0,0.1,0
	c0,0,0,0,0.1-0.1c0,0,0,0,0.1-0.1c0,0,0,0,0.1-0.1c0,0,0,0,0-0.1c0,0,0-0.1,0.1-0.1c0,0,0,0,0-0.1c0,0,0-0.1,0-0.1c0,0,0,0,0-0.1
	c0,0,0-0.1,0-0.1c0,0,0,0,0-0.1c0,0,0-0.1,0-0.1c0,0,0,0,0-0.1c0-0.1,0-0.1,0-0.2v-9.1C174.2,16.4,174.2,16.3,174.2,16.3z
	 M160.5,9.7l10.1,6.7l-4.5,3l-5.6-3.7V9.7z M157.9,9.7v6l-5.6,3.7l-4.5-3L157.9,9.7z M146.7,18.8L150,21l-3.2,2.2V18.8z M157.9,32.3
	l-10.1-6.7l4.5-3l5.6,3.7V32.3z M159.2,24l-4.6-3l4.6-3l4.6,3L159.2,24z M160.5,32.3v-6l5.6-3.7l4.5,3L160.5,32.3z M171.6,23.2
	l-3.2-2.2l3.2-2.2V23.2z"/>
</svg>
