<svg id="Layer_1" data-name="Layer 1" xmlns="http://www.w3.org/2000/svg" viewBox="0 0 40 40"><title>behance</title><path d="M34.1,12.21H25.3V10h8.8v2.2Zm-14.6,8.9a5.66,5.66,0,0,1,.8,3.2,7.11,7.11,0,0,1-1,3.5,5,5,0,0,1-1.5,1.7,5.28,5.28,0,0,1-2.4,1.1,15.53,15.53,0,0,1-3.1.3H2.5V9.11H13c2.7.1,4.6.8,5.7,2.3a5.29,5.29,0,0,1,1,3.4,5.09,5.09,0,0,1-1,3.2,6.68,6.68,0,0,1-1.7,1.3A3.93,3.93,0,0,1,19.5,21.11Zm-12-3.4h4.6a3.92,3.92,0,0,0,2.3-.6,2.08,2.08,0,0,0,.9-1.9,1.92,1.92,0,0,0-1.2-2,8.52,8.52,0,0,0-2.5-.3H7.5ZM15.7,24a2.34,2.34,0,0,0-1.4-2.3,6.17,6.17,0,0,0-2.2-.4H7.5v5.8h4.6a4.32,4.32,0,0,0,2.2-.4A2.68,2.68,0,0,0,15.7,24Zm21.7-3.6a26.35,26.35,0,0,1,.1,3.1H26.2a3.93,3.93,0,0,0,1.6,3.3,4,4,0,0,0,2.2.6,3.07,3.07,0,0,0,2.2-.7,2.26,2.26,0,0,0,.8-1.1h4.1a4.87,4.87,0,0,1-1.5,2.8,7.75,7.75,0,0,1-5.9,2.3,8.37,8.37,0,0,1-5.5-1.9c-1.6-1.3-2.4-3.4-2.4-6.2s.7-4.8,2.2-6.2a7.46,7.46,0,0,1,5.6-2.2,8.27,8.27,0,0,1,3.6.7,6.35,6.35,0,0,1,2.8,2.3A7.14,7.14,0,0,1,37.4,20.41Zm-4.2.5a3.05,3.05,0,0,0-1.1-2.4,3.43,3.43,0,0,0-2.5-.8,3.09,3.09,0,0,0-2.4.9A4.47,4.47,0,0,0,26.1,21l7.1-.1Z"/></svg>