<svg id="Layer_1" data-name="Layer 1" xmlns="http://www.w3.org/2000/svg" viewBox="0 0 40 40"><title>codepen</title><path d="M35,16.26v-.06s0-.07,0-.11l0-.06,0-.09,0-.06,0-.09,0-.06-.05-.08,0-.06-.06-.07-.05-.05-.07-.06-.06,0,0,0L20.72,6.22a1.29,1.29,0,0,0-1.43,0L5.57,15.36l0,0-.06,0-.07.06-.05.05-.06.07,0,.06-.05.08,0,.06,0,.09,0,.06,0,.09,0,.06,0,.11v.06a1.24,1.24,0,0,0,0,.17v9.14a1.27,1.27,0,0,0,0,.17v.06l0,.11,0,.06,0,.09,0,.06,0,.09,0,.06.05.08,0,.06.06.07.05.05.07.06.06,0,0,0,13.71,9.14a1.29,1.29,0,0,0,1.43,0l13.71-9.14,0,0,.06,0,.07-.06.05-.05.06-.07,0-.06.05-.08,0-.06,0-.09,0-.06,0-.09,0-.06s0-.07,0-.11v-.06a1.35,1.35,0,0,0,0-.17V16.43A1.32,1.32,0,0,0,35,16.26ZM21.29,9.7l10.1,6.73-4.51,3-5.59-3.74Zm-2.58,0v6l-5.59,3.74-4.51-3ZM7.58,18.84,10.8,21,7.58,23.16ZM18.71,32.3,8.61,25.57l4.51-3,5.59,3.74ZM20,24l-4.56-3L20,18l4.56,3Zm1.29,8.25v-6l5.59-3.74,4.51,3Zm11.13-9.14L29.2,21l3.22-2.16Z"/></svg>