<?xml version="1.0" encoding="utf-8"?>
<!-- Generator: Adobe Illustrator 21.0.2, SVG Export Plug-In . SVG Version: 6.00 Build 0)  -->
<svg viewBox="0 0 40 40">
<path d="M37.5,14.5L37.5,14.5c0-0.1,0-0.2,0-0.2v-0.1v-0.1V14v-0.1v-0.1l-0.1-0.1l-0.2-0.1l-0.1-0.1L37,13.4l-0.1,0.1h-0.1l0,0
	l-16-10.7c-0.5-0.3-1.2-0.3-1.7,0l-16,10.7l0,0H3h0l-0.1,0.1l-0.1,0.1v0.1l-0.1,0.1V14v0.1v0.1v0.1v0.1v0.1v0c0,0.1,0,0.1,0,0.2
	v10.7c0,0.1,0,0.1,0,0.2H2.5v0.1v0.1v0.1V26v0.1v0.1l0.1,0.1l0.2,0.1l0.1,0.1L3,26.6l0.1-0.1h0.1l0,0l16,10.7c0.5,0.3,1.2,0.3,1.7,0
	l16-10.7l0,0H37l0.1-0.1l0.1-0.1l0.1-0.1v-0.1l0.1-0.1v-0.1v-0.1v-0.1v-0.1v-0.1v-0.1v-0.1c0-0.1,0-0.1,0-0.2V14.7
	C37.4,14.6,37.5,14.5,37.5,14.5z M21.5,6.8l11.8,7.9L28,18.2l-6.5-4.4V6.8z M18.5,6.8v7L12,18.2l-5.3-3.5L18.5,6.8z M5.5,17.5
	L9.3,20l-3.8,2.5V17.5z M18.5,33.2L6.7,25.3l5.3-3.5l6.5,4.4V33.2z M20,23.6L14.7,20l5.3-3.6l5.3,3.6L20,23.6z M21.5,33.2v-7
	l6.5-4.4l5.3,3.5L21.5,33.2z M34.5,22.5L30.7,20l3.8-2.5V22.5z"/>
</svg>
