<?xml version="1.0" encoding="utf-8"?>
<!-- Generator: Adobe Illustrator 16.2.0, SVG Export Plug-In . SVG Version: 6.00 Build 0)  -->
<!DOCTYPE svg PUBLIC "-//W3C//DTD SVG 1.1//EN" "http://www.w3.org/Graphics/SVG/1.1/DTD/svg11.dtd">
<svg version="1.1" id="Layer_1" xmlns="http://www.w3.org/2000/svg" xmlns:xlink="http://www.w3.org/1999/xlink" x="0px" y="0px"
	 width="25px" height="25px" viewBox="-0.5 -0.5 25 25" enable-background="new -0.5 -0.5 25 25" xml:space="preserve">
<g>
	<polygon points="5.86,10.93 5.86,13.07 7.45,12 	"/>
	<polygon points="11.36,9.38 11.36,6.41 6.37,9.74 8.6,11.23 	"/>
	<polygon points="17.63,9.74 12.641,6.41 12.641,9.38 15.4,11.23 	"/>
	<polygon points="6.37,14.26 11.36,17.59 11.36,14.62 8.6,12.77 	"/>
	<polygon points="12.641,14.62 12.641,17.59 17.63,14.26 15.4,12.77 	"/>
	<polygon points="12,10.49 9.75,12 12,13.51 14.26,12 	"/>
	<path d="M12,0C5.37,0,0,5.37,0,12s5.37,12,12,12s12-5.37,12-12S18.63,0,12,0z M19.42,14.26c0,0.03,0,0.061-0.01,0.08
		c0,0.01,0,0.02,0,0.03c0,0.021-0.01,0.04-0.01,0.05s-0.01,0.02-0.01,0.03c-0.011,0.02-0.011,0.03-0.021,0.05
		c0,0.01-0.011,0.02-0.011,0.03c-0.01,0.01-0.01,0.03-0.02,0.04s-0.01,0.02-0.02,0.029s-0.021,0.03-0.03,0.041
		c-0.011,0.01-0.011,0.02-0.021,0.029s-0.02,0.02-0.029,0.03c-0.01,0.01-0.02,0.02-0.03,0.03c-0.01,0.01-0.021,0.02-0.04,0.029
		c-0.01,0.01-0.02,0.01-0.029,0.021l-0.011,0.01l-6.78,4.521C12.24,19.38,12.12,19.42,12,19.42s-0.25-0.04-0.35-0.109L4.87,14.79
		c0,0-0.01,0-0.01-0.01C4.85,14.77,4.84,14.77,4.83,14.76c-0.01-0.01-0.02-0.02-0.04-0.029C4.78,14.72,4.77,14.71,4.76,14.7
		c-0.01-0.011-0.02-0.021-0.03-0.03c-0.01-0.01-0.01-0.02-0.02-0.029C4.7,14.63,4.69,14.609,4.68,14.6
		c-0.01-0.01-0.01-0.02-0.02-0.029c-0.01-0.01-0.02-0.03-0.02-0.04c0-0.011-0.01-0.021-0.01-0.03c-0.01-0.02-0.01-0.03-0.02-0.05
		c0-0.011-0.01-0.021-0.01-0.03c0-0.02-0.01-0.04-0.01-0.05c0-0.011,0-0.021-0.01-0.03c0-0.029-0.01-0.06-0.01-0.08V9.74
		c0-0.03,0-0.06,0.01-0.08c0-0.01,0-0.02,0.01-0.03c0-0.02,0.01-0.04,0.01-0.05c0-0.01,0.01-0.02,0.01-0.03
		c0-0.02,0.01-0.03,0.02-0.05c0-0.01,0.01-0.02,0.01-0.03c0.01-0.01,0.01-0.03,0.02-0.04C4.67,9.41,4.68,9.4,4.68,9.39
		C4.69,9.38,4.7,9.37,4.71,9.36c0.01-0.01,0.01-0.02,0.02-0.03c0.01-0.01,0.02-0.02,0.03-0.04c0.01-0.01,0.02-0.02,0.03-0.02
		C4.8,9.26,4.81,9.25,4.83,9.24C4.84,9.23,4.85,9.22,4.86,9.22c0,0,0.01,0,0.01-0.01l6.78-4.52c0.21-0.14,0.49-0.14,0.71,0
		l6.781,4.52l0.01,0.01c0.01,0.01,0.02,0.01,0.029,0.021c0.01,0.01,0.021,0.02,0.041,0.03c0.01,0.01,0.02,0.02,0.029,0.02
		c0.01,0.01,0.02,0.02,0.029,0.04C19.29,9.34,19.3,9.35,19.3,9.36c0.011,0.01,0.021,0.03,0.03,0.04c0.01,0.01,0.01,0.02,0.02,0.03
		c0.01,0.01,0.01,0.03,0.021,0.04c0,0.01,0.01,0.021,0.01,0.03c0.011,0.02,0.011,0.03,0.021,0.05c0,0.01,0.01,0.02,0.01,0.03
		c0,0.02,0.01,0.04,0.01,0.05c0,0.01,0,0.02,0,0.03c0,0.03,0.01,0.06,0.01,0.08v4.52H19.42z"/>
	<polygon points="18.141,13.07 18.141,10.93 16.55,12 	"/>
</g>
</svg>
