<?xml version="1.0" encoding="utf-8"?>
<!-- Generator: Adobe Illustrator 21.0.2, SVG Export Plug-In . SVG Version: 6.00 Build 0)  -->
<svg version="1.1" viewBox="0 0 40 40">
<g>
	<rect x="6.4" y="15.3" class="st0" width="5.8" height="18.7"/>
	<path class="st0" d="M9.4,12.7c-1.9,0-3.4-1.5-3.4-3.3S7.4,6,9.4,6s3.4,1.5,3.4,3.4S11.1,12.7,9.4,12.7z"/>
	<path class="st0" d="M34,33.9h-5.8v-9.1c0-2.2,0-5-3-5s-3.5,2.4-3.5,4.8v9.2h-5.8V15.3h5.6v2.6h0.1c1.1-1.9,3.2-3.1,5.5-3
		c5.9,0,7,3.9,7,8.9L34,33.9L34,33.9z"/>
</g>
</svg>
