<?xml version="1.0" encoding="utf-8"?>
<!-- Generator: Adobe Illustrator 16.2.0, SVG Export Plug-In . SVG Version: 6.00 Build 0)  -->
<!DOCTYPE svg PUBLIC "-//W3C//DTD SVG 1.1//EN" "http://www.w3.org/Graphics/SVG/1.1/DTD/svg11.dtd">
<svg version="1.1" id="Layer_1" xmlns="http://www.w3.org/2000/svg" xmlns:xlink="http://www.w3.org/1999/xlink" x="0px" y="0px"
	 width="25px" height="25px" viewBox="-0.5 -0.5 25 25" enable-background="new -0.5 -0.5 25 25" xml:space="preserve">
<path d="M12,0C5.37,0,0,5.37,0,12s5.37,12,12,12s12-5.37,12-12S18.63,0,12,0z M9.18,17.52H6.51v-8h2.67V17.52z M7.85,8.32
	c-0.81,0-1.46-0.66-1.46-1.48c0-0.81,0.66-1.48,1.46-1.48c0.81,0,1.46,0.66,1.46,1.48C9.32,7.66,8.66,8.32,7.85,8.32z M18.52,17.52
	h-2.67V13.7c0-2.51-2.67-2.29-2.67,0v3.819h-2.67v-8h2.67v1.45c1.16-2.15,5.34-2.31,5.34,2.061V17.52z"/>
</svg>
