<?xml version="1.0" encoding="utf-8"?>
<!-- Generator: Adobe Illustrator 16.2.0, SVG Export Plug-In . SVG Version: 6.00 Build 0)  -->
<!DOCTYPE svg PUBLIC "-//W3C//DTD SVG 1.1//EN" "http://www.w3.org/Graphics/SVG/1.1/DTD/svg11.dtd">
<svg version="1.1" id="Layer_1" xmlns="http://www.w3.org/2000/svg" xmlns:xlink="http://www.w3.org/1999/xlink" x="0px" y="0px"
	 width="24px" height="22px" viewBox="0 1 24 22" enable-background="new 0 1 24 22" xml:space="preserve">
<path fill="none" d="M20,9.4C20,4.5,15.2,1,10,1C4.7,1,0,4.5,0,9.4c0,1.7,0.6,3.4,1.7,4.7c0,1.5-0.9,3.7-1.7,5.3
	c2.2-0.4,5.3-1.3,6.6-2.1C14.4,19.1,20,14.4,20,9.4z M5.5,10.7c-0.7,0-1.3-0.6-1.3-1.3s0.6-1.3,1.3-1.3s1.3,0.6,1.3,1.3
	S6.2,10.7,5.5,10.7z M10,10.7c-0.7,0-1.3-0.6-1.3-1.3S9.3,8.2,10,8.2s1.3,0.6,1.3,1.3S10.7,10.7,10,10.7z M14.5,10.7
	c-0.7,0-1.3-0.6-1.3-1.3s0.6-1.3,1.3-1.3s1.3,0.6,1.3,1.3S15.2,10.7,14.5,10.7z M22.9,19.5c0,1,0.6,2.4,1.1,3.5
	c-1.4-0.3-3.4-0.8-4.4-1.4c-3.4,0.8-6.1-0.3-7.6-2.1c4.6-0.7,8.2-3.6,9.5-7.3c1.5,1,2.5,2.5,2.5,4.3C24,17.6,23.6,18.7,22.9,19.5z"
	/>
</svg>
