<?xml version="1.0" encoding="utf-8"?>
<!-- Generator: Adobe Illustrator 16.2.0, SVG Export Plug-In . SVG Version: 6.00 Build 0)  -->
<!DOCTYPE svg PUBLIC "-//W3C//DTD SVG 1.1//EN" "http://www.w3.org/Graphics/SVG/1.1/DTD/svg11.dtd">
<svg version="1.1" id="Layer_1" xmlns="http://www.w3.org/2000/svg" xmlns:xlink="http://www.w3.org/1999/xlink" x="0px" y="0px"
	 width="32px" height="32px" viewBox="117.447 117.448 32 32" enable-background="new 117.447 117.448 32 32" xml:space="preserve">
<path fill="#3C5A99" d="M147.156,118.448h-26.689c-0.915,0-1.656,0.741-1.656,1.656v26.689c0,0.914,0.741,1.655,1.656,1.655h14.369
	V136.83h-3.91v-4.528h3.91v-3.339c0-3.875,2.366-5.985,5.823-5.985c1.655,0,3.078,0.124,3.493,0.179v4.049l-2.397,0.001
	c-1.88,0-2.244,0.894-2.244,2.204v2.891h4.483l-0.583,4.528h-3.9v11.617h7.646c0.914,0,1.655-0.741,1.655-1.655v-26.689
	C148.811,119.189,148.07,118.448,147.156,118.448z"/>
</svg>
