<?xml version="1.0" encoding="utf-8"?>
<!-- Generator: Adobe Illustrator 16.2.0, SVG Export Plug-In . SVG Version: 6.00 Build 0)  -->
<!DOCTYPE svg PUBLIC "-//W3C//DTD SVG 1.1//EN" "http://www.w3.org/Graphics/SVG/1.1/DTD/svg11.dtd">
<svg version="1.1" id="Layer_1" xmlns="http://www.w3.org/2000/svg" xmlns:xlink="http://www.w3.org/1999/xlink" x="0px" y="0px"
	 width="32px" height="32px" viewBox="290 380 32 32" enable-background="new 290 380 32 32" xml:space="preserve">
<g>
	<defs>
		<path id="SVGID_1_" d="M320.65,393.208h-14.302v5.932h8.231c-0.767,3.768-3.977,5.929-8.231,5.929c-5.023,0-9.07-4.047-9.07-9.069
			c0-5.024,4.046-9.072,9.07-9.072c2.162,0,4.117,0.771,5.653,2.024l4.463-4.464c-2.72-2.373-6.208-3.838-10.116-3.838
			c-8.512,0-15.349,6.837-15.349,15.35c0,8.511,6.836,15.35,15.349,15.35c7.675,0,14.651-5.583,14.651-15.35
			C321,395.092,320.862,394.115,320.65,393.208z"/>
	</defs>
	<clipPath id="SVGID_2_">
		<use xlink:href="#SVGID_1_"  overflow="visible"/>
	</clipPath>
	<path clip-path="url(#SVGID_2_)" fill="#FBBC05" d="M289.604,405.069v-18.141L301.465,396L289.604,405.069z"/>
</g>
<g>
	<defs>
		<path id="SVGID_3_" d="M320.65,393.208h-14.302v5.932h8.231c-0.767,3.768-3.977,5.929-8.231,5.929c-5.023,0-9.07-4.047-9.07-9.069
			c0-5.024,4.046-9.072,9.07-9.072c2.162,0,4.117,0.771,5.653,2.024l4.463-4.464c-2.72-2.373-6.208-3.838-10.116-3.838
			c-8.512,0-15.349,6.837-15.349,15.35c0,8.511,6.836,15.35,15.349,15.35c7.675,0,14.651-5.583,14.651-15.35
			C321,395.092,320.862,394.115,320.65,393.208z"/>
	</defs>
	<clipPath id="SVGID_4_">
		<use xlink:href="#SVGID_3_"  overflow="visible"/>
	</clipPath>
	<path clip-path="url(#SVGID_4_)" fill="#EA4335" d="M289.604,386.928L301.465,396l4.883-4.256l16.744-2.721v-9.768h-33.489V386.928
		z"/>
</g>
<g>
	<defs>
		<path id="SVGID_5_" d="M320.65,393.208h-14.302v5.932h8.231c-0.767,3.768-3.977,5.929-8.231,5.929c-5.023,0-9.07-4.047-9.07-9.069
			c0-5.024,4.046-9.072,9.07-9.072c2.162,0,4.117,0.771,5.653,2.024l4.463-4.464c-2.72-2.373-6.208-3.838-10.116-3.838
			c-8.512,0-15.349,6.837-15.349,15.35c0,8.511,6.836,15.35,15.349,15.35c7.675,0,14.651-5.583,14.651-15.35
			C321,395.092,320.862,394.115,320.65,393.208z"/>
	</defs>
	<clipPath id="SVGID_6_">
		<use xlink:href="#SVGID_5_"  overflow="visible"/>
	</clipPath>
	<path clip-path="url(#SVGID_6_)" fill="#34A853" d="M289.604,405.069l20.931-16.046l5.51,0.697l7.048-10.465v33.49h-33.489V405.069
		z"/>
</g>
<g>
	<defs>
		<path id="SVGID_7_" d="M320.65,393.208h-14.302v5.932h8.231c-0.767,3.768-3.977,5.929-8.231,5.929c-5.023,0-9.07-4.047-9.07-9.069
			c0-5.024,4.046-9.072,9.07-9.072c2.162,0,4.117,0.771,5.653,2.024l4.463-4.464c-2.72-2.373-6.208-3.838-10.116-3.838
			c-8.512,0-15.349,6.837-15.349,15.35c0,8.511,6.836,15.35,15.349,15.35c7.675,0,14.651-5.583,14.651-15.35
			C321,395.092,320.862,394.115,320.65,393.208z"/>
	</defs>
	<clipPath id="SVGID_8_">
		<use xlink:href="#SVGID_7_"  overflow="visible"/>
	</clipPath>
	<path clip-path="url(#SVGID_8_)" fill="#4285F4" d="M323.093,412.745L301.465,396l-2.791-2.093l24.418-6.979V412.745z"/>
</g>
</svg>
